<svg width="89" height="67" viewBox="0 0 89 67" fill="none" xmlns="http://www.w3.org/2000/svg">
<path d="M80.6562 67H8.34375C3.73557 67 0 63.2504 0 58.625V8.375C0 3.74956 3.73557 0 8.34375 0H80.6562C85.2644 0 89 3.74956 89 8.375V58.625C89 63.2504 85.2644 67 80.6562 67ZM19.4688 9.77083C14.0926 9.77083 9.73438 14.1454 9.73438 19.5417C9.73438 24.938 14.0926 29.3125 19.4688 29.3125C24.8449 29.3125 29.2031 24.938 29.2031 19.5417C29.2031 14.1454 24.8449 9.77083 19.4688 9.77083ZM11.125 55.8333H77.875V36.2917L62.6624 21.0221C61.8479 20.2045 60.5271 20.2045 59.7124 21.0221L36.1562 44.6667L26.5062 34.9805C25.6916 34.1628 24.3709 34.1628 23.5561 34.9805L11.125 47.4583V55.8333Z" fill="#F57C1F"/>
</svg>
